<?xml version="1.0" encoding="UTF-8" standalone="no"?>
<svg
   xmlns:dc="http://purl.org/dc/elements/1.1/"
   xmlns:cc="http://creativecommons.org/ns#"
   xmlns:rdf="http://www.w3.org/1999/02/22-rdf-syntax-ns#"
   xmlns:svg="http://www.w3.org/2000/svg"
   xmlns="http://www.w3.org/2000/svg"
   xmlns:sodipodi="http://sodipodi.sourceforge.net/DTD/sodipodi-0.dtd"
   xmlns:inkscape="http://www.inkscape.org/namespaces/inkscape"
   sodipodi:docname="auron-header.svg"
   inkscape:version="1.0 (4035a4fb49, 2020-05-01)"
   id="svg219"
   version="1.1"
   viewBox="0 0 457.54489 49.55917"
   height="49.55917mm"
   width="457.54489mm">
  <defs
     id="defs213" />
  <sodipodi:namedview
     inkscape:window-maximized="1"
     inkscape:window-y="-8"
     inkscape:window-x="-8"
     inkscape:window-height="1377"
     inkscape:window-width="2560"
     showgrid="false"
     inkscape:document-rotation="0"
     inkscape:current-layer="text859"
     inkscape:document-units="mm"
     inkscape:cy="497.5822"
     inkscape:cx="805.67157"
     inkscape:zoom="0.7"
     inkscape:pageshadow="2"
     inkscape:pageopacity="0.0"
     borderopacity="1.0"
     bordercolor="#666666"
     pagecolor="#ffffff"
     id="base"
     fit-margin-top="0"
     fit-margin-left="0"
     fit-margin-right="0"
     fit-margin-bottom="0" />
  <metadata
     id="metadata216">
    <rdf:RDF>
      <cc:Work
         rdf:about="">
        <dc:format>image/svg+xml</dc:format>
        <dc:type
           rdf:resource="http://purl.org/dc/dcmitype/StillImage" />
        <dc:title></dc:title>
      </cc:Work>
    </rdf:RDF>
  </metadata>
  <g
     id="layer1"
     inkscape:groupmode="layer"
     inkscape:label="Layer 1"
     transform="translate(-24.376838,-85.589462)">
    <g
       transform="matrix(0.26458333,0,0,0.26458333,-1.1838771,37.551725)"
       aria-label="Auron Web Messenger"
       id="text859"
       style="font-style:normal;font-variant:normal;font-weight:800;font-stretch:normal;font-size:128px;line-height:1.25;font-family:'Open Sans';-inkscape-font-specification:'Open Sans Ultra-Bold';fill:#636467;fill-opacity:1;stroke:none">
      <path
         style="stroke-width:0.910714"
         d="m 411.17883,309.78204 -4.09821,-15.59598 h -27.03683 l -4.21206,15.59598 H 351.12861 L 378.27928,226.224 h 29.99665 l 27.49219,83.55804 z m -8.76562,-34.03795 -3.58594,-13.66071 q -1.25223,-4.55357 -3.07366,-11.78237 -1.76451,-7.22879 -2.33371,-10.35937 -0.51227,2.9029 -2.0491,9.5625 -1.47991,6.6596 -6.6596,26.23995 z"
         id="path844" />
      <path
         style="stroke-width:0.910714"
         d="m 489.44334,309.78204 -2.78906,-8.02567 h -1.30915 q -2.78906,4.43973 -7.79799,6.83036 -4.95201,2.3337 -11.66853,2.3337 -10.64397,0 -16.56362,-6.14732 -5.91964,-6.20424 -5.91964,-17.47433 v -42.0067 h 22.25558 v 35.23326 q 0,6.31808 1.76451,9.5625 1.82143,3.24442 5.91964,3.24442 5.74889,0 8.19643,-4.49665 2.44755,-4.55357 2.44755,-15.31138 v -28.23215 h 22.25558 v 64.48996 z"
         id="path846" />
      <path
         style="stroke-width:0.910714"
         d="m 560.53598,244.15369 q 2.9029,0 5.5212,0.45536 l 1.25223,0.22768 -1.99218,21.00335 q -2.73215,-0.68304 -7.57032,-0.68304 -7.28571,0 -10.58705,3.35826 -3.30134,3.30134 -3.30134,9.5625 v 31.70424 h -22.25558 v -64.48996 h 16.56362 l 3.47209,10.30246 h 1.08148 q 2.78906,-5.12277 7.74107,-8.25335 5.00893,-3.1875 10.07478,-3.1875 z"
         id="path848" />
      <path
         style="stroke-width:0.910714"
         d="m 637.83285,277.39476 q 0,15.82366 -8.53795,24.70313 -8.48102,8.82254 -23.79241,8.82254 -14.68526,0 -23.39397,-9.05022 -8.65179,-9.05022 -8.65179,-24.47545 0,-15.76674 8.48103,-24.47544 8.53795,-8.76563 23.90625,-8.76563 9.50558,0 16.7913,4.0413 7.28571,4.04129 11.21317,11.6116 3.98437,7.5134 3.98437,17.58817 z m -41.77902,0 q 0,8.31027 2.21987,12.69308 2.21986,4.3259 7.45647,4.3259 5.17969,0 7.28572,-4.3259 2.16294,-4.38281 2.16294,-12.69308 0,-8.25334 -2.16294,-12.4654 -2.16295,-4.21205 -7.39956,-4.21205 -5.12277,0 -7.34263,4.21205 -2.21987,4.15514 -2.21987,12.4654 z"
         id="path850" />
      <path
         style="stroke-width:0.910714"
         d="M 691.16656,309.78204 V 274.6057 q 0,-6.43192 -1.87835,-9.67634 -1.82143,-3.30134 -5.91965,-3.30134 -5.63504,0 -8.1395,4.49665 -2.50447,4.49666 -2.50447,15.42523 v 28.23214 h -22.25558 v -64.48996 h 16.7913 l 2.78906,7.96875 h 1.30915 q 2.84598,-4.55357 7.85491,-6.83035 5.06585,-2.27679 11.61161,-2.27679 10.70089,0 16.62053,6.20424 5.97657,6.20424 5.97657,17.47433 v 41.94978 z"
         id="path852" />
      <path
         style="stroke-width:0.910714"
         d="m 850.02928,309.78204 h -26.58147 l -7.96875,-36.25781 q -0.5692,-2.27679 -1.82143,-9.05023 -1.19532,-6.77343 -1.76451,-11.327 -0.45536,3.69977 -1.47991,9.22098 -1.02456,5.46428 -2.04911,10.07477 -0.96763,4.6105 -8.25335,37.33929 h -26.58147 l -20.60491,-83.21652 h 21.68638 l 9.05023,41.7221 q 3.07366,13.83147 4.21205,22.0279 0.73995,-5.8058 2.6183,-15.76674 1.93527,-9.96094 3.58594,-16.5067 l 7.34263,-31.47656 h 20.83259 l 7.11496,31.47656 q 1.82143,7.57032 3.69978,17.47434 1.87834,9.90401 2.50446,14.7991 0.73996,-6.31808 4.04129,-21.91406 l 9.22099,-41.83594 h 21.68638 z"
         id="path854" />
      <path
         style="stroke-width:0.910714"
         d="m 911.10406,310.92043 q -16.10826,0 -25.04465,-8.53794 -8.87946,-8.59487 -8.87946,-24.41853 0,-16.33594 8.25335,-25.04464 8.25334,-8.76563 23.56473,-8.76563 14.57143,0 22.48326,7.62723 7.96875,7.57032 7.96875,21.85715 v 9.90401 h -39.78683 q 0.22768,5.40737 3.92745,8.48103 3.7567,3.07366 10.18862,3.07366 5.86272,0 10.75781,-1.08147 4.95201,-1.13839 10.70089,-3.81362 v 15.99442 q -5.2366,2.67523 -10.81473,3.69978 -5.57812,1.02455 -13.31919,1.02455 z m -1.30916,-51.62611 q -3.92745,0 -6.60267,2.50446 -2.61831,2.44755 -3.07367,7.74107 h 19.125 q -0.11383,-4.66741 -2.67522,-7.45647 -2.50446,-2.78906 -6.77344,-2.78906 z"
         id="path856" />
      <path
         style="stroke-width:0.910714"
         d="m 991.53148,244.15369 q 10.53022,0 16.67752,8.82255 6.2042,8.82254 6.2042,24.41852 0,15.70982 -6.2611,24.64621 -6.2043,8.87946 -17.30362,8.87946 -3.5859,0 -6.375,-0.79687 -2.789,-0.73996 -5.0089,-2.10603 -2.163,-1.36607 -5.0659,-4.55357 h -1.366 l -3.5291,6.31808 h -17.3605 v -88.56696 h 22.2556 v 20.03571 q 0,3.58594 -0.7968,12.35156 h 0.7968 q 3.2445,-5.00893 7.4565,-7.22879 4.269,-2.21987 9.6763,-2.21987 z m -8.1395,17.47433 q -4.6674,0 -6.8303,3.24442 -2.163,3.24442 -2.163,10.18862 v 3.13058 q 0,7.91183 2.163,11.38393 2.1629,3.41518 7.058,3.41518 3.9275,0 6.0335,-3.98438 2.106,-4.04129 2.106,-11.83929 0,-15.53906 -8.3672,-15.53906 z"
         id="path858" />
      <path
         style="stroke-width:0.910714"
         d="m 1094.8976,309.78204 -17.019,-59.93638 h -0.5122 q 1.1953,15.31138 1.1953,23.79241 v 36.14397 h -19.9219 v -83.21652 h 29.9397 l 17.3605,59.08259 h 0.4554 l 17.019,-59.08259 h 29.9966 v 83.21652 h -20.6618 v -36.48549 q 0,-2.84598 0.056,-6.31808 0.1139,-3.4721 0.7969,-17.01897 h -0.5123 l -16.7912,59.82254 z"
         id="path860" />
      <path
         style="stroke-width:0.910714"
         d="m 1201.1666,310.92043 q -16.1083,0 -25.0446,-8.53794 -8.8795,-8.59487 -8.8795,-24.41853 0,-16.33594 8.2533,-25.04464 8.2534,-8.76563 23.5648,-8.76563 14.5714,0 22.4832,7.62723 7.9688,7.57032 7.9688,21.85715 v 9.90401 h -39.7869 q 0.2277,5.40737 3.9275,8.48103 3.7567,3.07366 10.1886,3.07366 5.8627,0 10.7578,-1.08147 4.952,-1.13839 10.7009,-3.81362 v 15.99442 q -5.2366,2.67523 -10.8147,3.69978 -5.5781,1.02455 -13.3192,1.02455 z m -1.3092,-51.62611 q -3.9274,0 -6.6026,2.50446 -2.6183,2.44755 -3.0737,7.74107 h 19.125 q -0.1138,-4.66741 -2.6752,-7.45647 -2.5045,-2.78906 -6.7735,-2.78906 z"
         id="path862" />
      <path
         style="stroke-width:0.910714"
         d="m 1292.0103,289.974 q 0,10.35938 -7.058,15.65291 -7.058,5.29352 -20.2634,5.29352 -7.1719,0 -12.4654,-0.79687 -5.2935,-0.73996 -10.8147,-2.78906 v -17.81585 q 5.1797,2.27678 11.327,3.75669 6.2042,1.47991 11.0424,1.47991 7.2288,0 7.2288,-3.30134 0,-1.70758 -2.0491,-3.01674 -1.9922,-1.36607 -11.7255,-5.2366 -8.8794,-3.64286 -12.4084,-8.25335 -3.5291,-4.66741 -3.5291,-11.78237 0,-8.9933 6.9442,-14.00223 6.9442,-5.00893 19.6373,-5.00893 6.375,0 11.9531,1.42299 5.6351,1.36607 11.6686,4.0413 l -6.0335,14.34375 q -4.4397,-1.99219 -9.3918,-3.35826 -4.952,-1.42299 -8.0825,-1.42299 -5.4643,0 -5.4643,2.67522 0,1.65067 1.8783,2.84598 1.9353,1.1384 11.0424,4.72433 6.7735,2.78907 10.0748,5.46429 3.3583,2.67522 4.8951,6.31808 1.5937,3.58594 1.5937,8.76562 z"
         id="path864" />
      <path
         style="stroke-width:0.910714"
         d="m 1354.1666,289.974 q 0,10.35938 -7.058,15.65291 -7.0581,5.29352 -20.2634,5.29352 -7.1719,0 -12.4654,-0.79687 -5.2936,-0.73996 -10.8148,-2.78906 v -17.81585 q 5.1797,2.27678 11.327,3.75669 6.2043,1.47991 11.0425,1.47991 7.2287,0 7.2287,-3.30134 0,-1.70758 -2.0491,-3.01674 -1.9921,-1.36607 -11.7254,-5.2366 -8.8795,-3.64286 -12.4085,-8.25335 -3.529,-4.66741 -3.529,-11.78237 0,-8.9933 6.9442,-14.00223 6.9442,-5.00893 19.6373,-5.00893 6.375,0 11.9531,1.42299 5.635,1.36607 11.6685,4.0413 l -6.0335,14.34375 q -4.4397,-1.99219 -9.3917,-3.35826 -4.952,-1.42299 -8.0826,-1.42299 -5.4643,0 -5.4643,2.67522 0,1.65067 1.8784,2.84598 1.9352,1.1384 11.0424,4.72433 6.7734,2.78907 10.0748,5.46429 3.3582,2.67522 4.895,6.31808 1.5938,3.58594 1.5938,8.76562 z"
         id="path866" />
      <path
         style="stroke-width:0.910714"
         d="m 1397.6532,310.92043 q -16.1083,0 -25.0446,-8.53794 -8.8795,-8.59487 -8.8795,-24.41853 0,-16.33594 8.2533,-25.04464 8.2534,-8.76563 23.5648,-8.76563 14.5714,0 22.4832,7.62723 7.9688,7.57032 7.9688,21.85715 v 9.90401 h -39.7868 q 0.2276,5.40737 3.9274,8.48103 3.7567,3.07366 10.1886,3.07366 5.8627,0 10.7578,-1.08147 4.952,-1.13839 10.7009,-3.81362 v 15.99442 q -5.2366,2.67523 -10.8147,3.69978 -5.5781,1.02455 -13.3192,1.02455 z m -1.3092,-51.62611 q -3.9274,0 -6.6026,2.50446 -2.6183,2.44755 -3.0737,7.74107 h 19.125 q -0.1138,-4.66741 -2.6752,-7.45647 -2.5045,-2.78906 -6.7735,-2.78906 z"
         id="path868" />
      <path
         style="stroke-width:0.910714"
         d="M 1479.3898,309.78204 V 274.6057 q 0,-6.43192 -1.8783,-9.67634 -1.8215,-3.30134 -5.9197,-3.30134 -5.635,0 -8.1395,4.49665 -2.5045,4.49666 -2.5045,15.42523 v 28.23214 h -22.2555 v -64.48996 h 16.7913 l 2.789,7.96875 h 1.3092 q 2.846,-4.55357 7.8549,-6.83035 5.0658,-2.27679 11.6116,-2.27679 10.7009,0 16.6205,6.20424 5.9766,6.20424 5.9766,17.47433 v 41.94978 z"
         id="path870" />
      <path
         style="stroke-width:0.910714"
         d="m 1577.6331,245.29208 v 10.75782 l -8.8225,3.24442 q 1.8214,3.30134 1.8214,7.68415 0,10.41629 -7.3426,16.16518 -7.2858,5.74888 -21.8003,5.74888 -3.5859,0 -5.6919,-0.45536 -0.7969,1.47991 -0.7969,2.78907 0,1.65067 2.6752,2.56138 2.6752,0.85379 7.0011,0.85379 h 10.7009 q 21.6864,0 21.6864,18.27121 0,11.78237 -10.0748,18.32813 -10.0178,6.54575 -28.1752,6.54575 -13.7176,0 -21.1741,-4.61049 -7.3995,-4.55357 -7.3995,-13.14843 0,-11.55469 14.3437,-14.91295 -2.9598,-1.25223 -5.1797,-4.0413 -2.1629,-2.78906 -2.1629,-5.5212 0,-3.01674 1.6506,-5.29353 1.6507,-2.3337 6.8873,-5.5212 -5.0089,-2.21987 -7.9118,-6.9442 -2.846,-4.72433 -2.846,-11.49777 0,-10.53013 7.1719,-16.33593 7.1719,-5.80581 20.4911,-5.80581 1.7645,0 6.0904,0.39844 4.3258,0.39844 6.375,0.73995 z m -48.6094,72.51563 q 0,2.73214 2.9599,4.38281 2.9598,1.70759 7.9118,1.70759 8.0826,0 12.9207,-2.04911 4.8951,-1.99218 4.8951,-5.17968 0,-2.56139 -2.9598,-3.64286 -2.9598,-1.02455 -8.481,-1.02455 h -8.7087 q -3.586,0 -6.0904,1.65067 -2.4476,1.70758 -2.4476,4.15513 z m 7.0012,-51.39844 q 0,9.90402 6.8872,9.90402 3.1875,0 4.8951,-2.44754 1.7645,-2.44755 1.7645,-7.34264 0,-10.01786 -6.6596,-10.01786 -6.8872,0 -6.8872,9.90402 z"
         id="path872" />
      <path
         style="stroke-width:0.910714"
         d="m 1618.5014,310.92043 q -16.1082,0 -25.0446,-8.53794 -8.8795,-8.59487 -8.8795,-24.41853 0,-16.33594 8.2534,-25.04464 8.2533,-8.76563 23.5647,-8.76563 14.5714,0 22.4832,7.62723 7.9688,7.57032 7.9688,21.85715 v 9.90401 h -39.7868 q 0.2276,5.40737 3.9274,8.48103 3.7567,3.07366 10.1886,3.07366 5.8628,0 10.7579,-1.08147 4.952,-1.13839 10.7008,-3.81362 v 15.99442 q -5.2366,2.67523 -10.8147,3.69978 -5.5781,1.02455 -13.3192,1.02455 z m -1.3091,-51.62611 q -3.9275,0 -6.6027,2.50446 -2.6183,2.44755 -3.0737,7.74107 h 19.125 q -0.1138,-4.66741 -2.6752,-7.45647 -2.5045,-2.78906 -6.7734,-2.78906 z"
         id="path874" />
      <path
         style="stroke-width:0.910714"
         d="m 1698.4735,244.15369 q 2.9029,0 5.5212,0.45536 l 1.2523,0.22768 -1.9922,21.00335 q -2.7322,-0.68304 -7.5703,-0.68304 -7.2858,0 -10.5871,3.35826 -3.3013,3.30134 -3.3013,9.5625 v 31.70424 h -22.2556 v -64.48996 h 16.5636 l 3.4721,10.30246 h 1.0815 q 2.789,-5.12277 7.741,-8.25335 5.009,-3.1875 10.0748,-3.1875 z"
         id="path876" />
    </g>
    <g
       id="g3826"
       inkscape:export-filename="G:\logotiny.png"
       inkscape:export-xdpi="20.500748"
       inkscape:export-ydpi="20.500748"
       style="fill:#099efb;fill-opacity:1"
       transform="matrix(0.26458333,0,0,0.26458333,-8.4410204,38.370588)">
      <polygon
         points="224.326,185.526 213.367,179.2 202.408,185.526 202.408,198.18 213.367,204.509 224.326,198.18 "
         id="polygon3806"
         style="fill:#099efb;fill-opacity:1" />
      <polygon
         points="140.215,292.537 140.215,305.189 151.174,311.516 162.133,305.189 162.133,292.537 151.174,286.208 "
         id="polygon3808"
         style="fill:#099efb;fill-opacity:1" />
      <g
         id="g3812"
         style="fill:#099efb;fill-opacity:1">
        <path
           d="m 144.326,271.482 c 1.351,-0.78 2.858,-1.707 3.35,-2.061 0.492,-0.354 2.066,-0.643 3.497,-0.643 1.431,0 3.005,0.289 3.497,0.642 0.492,0.353 1.999,1.279 3.35,2.059 l 8.405,4.853 c 1.351,0.78 3.589,0.834 4.976,0.121 l 22.643,-11.648 c 1.386,-0.713 2.521,-2.572 2.521,-4.131 v -3.807 c 0,-1.559 1.105,-3.472 2.455,-4.251 l 3.409,-1.968 c 1.35,-0.779 2.455,-2.692 2.455,-4.251 v -25.27 c 0,-1.559 -1.104,-3.472 -2.455,-4.251 l -9.733,-5.62 c -1.351,-0.779 -3.356,-1.944 -4.458,-2.588 -1.102,-0.644 -2.003,-2.446 -2.004,-4.005 l -0.003,-24.448 c 0,-1.559 -1.105,-2.197 -2.455,-1.417 l -56.977,32.896 c -1.35,0.78 -2.455,2.693 -2.455,4.252 v 64.676 c 0,1.559 0.771,2.292 1.713,1.628 0.942,-0.663 2.817,-1.844 4.168,-2.624 z"
           id="path3810"
           style="fill:#099efb;fill-opacity:1"
           inkscape:connector-curvature="0" />
      </g>
      <g
         id="g3816"
         style="fill:#099efb;fill-opacity:1">
        <path
           d="m 275.052,330.718 c 1.35,-0.78 1.877,-1.418 1.172,-1.417 -0.705,0.001 -1.858,0.002 -2.562,0.002 -0.704,0 -1.685,-0.285 -2.18,-0.634 -0.495,-0.349 -2.004,-1.271 -3.355,-2.051 l -13.588,-7.846 c -1.351,-0.779 -3.417,-1.891 -4.593,-2.469 -1.176,-0.578 -2.138,-2.327 -2.139,-3.887 l -10e-4,-16.548 c 0,-1.559 -1.104,-3.474 -2.453,-4.256 L 223.978,279.22 c -1.349,-0.782 -3.557,-0.784 -4.907,-0.005 l -3.521,2.033 c -1.351,0.779 -3.56,0.779 -4.91,0 l -3.763,-2.173 c -1.351,-0.779 -3.589,-0.833 -4.976,-0.121 l -21.07,10.839 c -1.386,0.713 -2.521,2.572 -2.521,4.131 v 17.297 c 0,1.56 -0.84,3.427 -1.867,4.149 -1.026,0.724 -2.971,1.953 -4.321,2.732 l -14.378,8.302 c -1.35,0.779 -2.874,1.67 -3.385,1.979 -0.511,0.309 -1.438,0.562 -2.058,0.562 -0.62,0 -1.634,0 -2.254,0 -0.62,0 -1.546,-0.253 -2.058,-0.562 -0.512,-0.31 0.168,0.085 1.512,0.875 l 61.026,35.919 c 1.344,0.79 3.547,0.799 4.897,0.019 z"
           id="path3814"
           style="fill:#099efb;fill-opacity:1"
           inkscape:connector-curvature="0" />
      </g>
      <g
         id="g3820"
         style="fill:#099efb;fill-opacity:1">
        <path
           d="m 238.48,208.674 c -1.113,0.651 -3.129,1.822 -4.479,2.602 l -10.485,6.053 c -1.35,0.78 -2.455,2.693 -2.455,4.252 v 24.671 c 0,1.559 1.104,3.472 2.455,4.252 l 3.655,2.11 c 1.351,0.78 2.455,2.693 2.455,4.252 v 4.094 c 0,1.559 1.104,3.474 2.452,4.256 l 21.242,12.314 c 1.349,0.782 3.557,0.784 4.907,0.004 l 10.169,-5.873 c 1.35,-0.78 2.875,-1.667 3.388,-1.971 0.514,-0.304 1.934,-0.554 3.156,-0.554 1.223,0 2.643,0.249 3.156,0.553 0.513,0.304 2.038,1.192 3.389,1.971 l 14.405,8.317 c 1.351,0.779 3.188,1.932 4.083,2.562 0.895,0.629 1.627,-0.131 1.627,-1.69 v -64.907 c 0,-1.559 -1.104,-3.472 -2.455,-4.252 l -56.189,-32.441 c -1.35,-0.78 -2.455,-0.142 -2.454,1.417 l 0.002,23.989 c 0.001,1.56 -0.91,3.368 -2.024,4.019 z"
           id="path3818"
           style="fill:#099efb;fill-opacity:1"
           inkscape:connector-curvature="0" />
      </g>
      <polygon
         points="263.984,292.894 263.984,305.545 274.942,311.877 285.902,305.545 285.902,292.894 274.942,286.566 "
         id="polygon3822"
         style="fill:#099efb;fill-opacity:1" />
      <line
         x1="124.343"
         y1="283.45401"
         x2="124.036"
         y2="283.66901"
         id="line3824"
         style="fill:#099efb;fill-opacity:1" />
    </g>
  </g>
</svg>
